PathFileType	4	(X/Y/Z)	C:\Users\Basilio\Documents\Thesis Gigler\squatting_fais\c3dfiles\077\SLS_front_pre2\markers_experimental.trc
DataRate	CameraRate	NumFrames	NumMarkers	Units	OrigDataRate	OrigDataStartFrame	OrigNumFrames
200.000000	200.000000	4	60	mm	200.000000	0	2075
Frame#	Time	FHD			LBHD			RBHD			C7			T10			CLAV			LSHO			LUUPA			LMUPA			LDUPA			LLEP			LMEP			LRAD			LUL			LRFIN			RSHO			RUPA1			RMUPA			RDUPA			RLEP			RMEP			RUL			RUFIN			LASI			RASI			USACR			LSACR			RSACR			LTHI1			LTHI2			LTHI3			LTHI4			LLFC			LMFC			LTIB1			LTIB2			LTIB3			LTIB4			LLMAL			LHEE			LMT1			LMT2			LMT5			RTHI			RTHI2			RTHI3			RTHI4			RLFC			RMFC			RTIB1			RTIB2			RTIB3			RTIB4			RLMAL			RMMAL			RHEE			RMT1			RMT2			RMT5			RRAD			
		X1	Y1	Z1	X2	Y2	Z2	X3	Y3	Z3	X4	Y4	Z4	X5	Y5	Z5	X6	Y6	Z6	X7	Y7	Z7	X8	Y8	Z8	X9	Y9	Z9	X10	Y10	Z10	X11	Y11	Z11	X12	Y12	Z12	X13	Y13	Z13	X14	Y14	Z14	X15	Y15	Z15	X16	Y16	Z16	X17	Y17	Z17	X18	Y18	Z18	X19	Y19	Z19	X20	Y20	Z20	X21	Y21	Z21	X22	Y22	Z22	X23	Y23	Z23	X24	Y24	Z24	X25	Y25	Z25	X26	Y26	Z26	X27	Y27	Z27	X28	Y28	Z28	X29	Y29	Z29	X30	Y30	Z30	X31	Y31	Z31	X32	Y32	Z32	X33	Y33	Z33	X34	Y34	Z34	X35	Y35	Z35	X36	Y36	Z36	X37	Y37	Z37	X38	Y38	Z38	X39	Y39	Z39	X40	Y40	Z40	X41	Y41	Z41	X42	Y42	Z42	X43	Y43	Z43	X44	Y44	Z44	X45	Y45	Z45	X46	Y46	Z46	X47	Y47	Z47	X48	Y48	Z48	X49	Y49	Z49	X50	Y50	Z50	X51	Y51	Z51	X52	Y52	Z52	X53	Y53	Z53	X54	Y54	Z54	X55	Y55	Z55	X56	Y56	Z56	X57	Y57	Z57	X58	Y58	Z58	X59	Y59	Z59	X60	Y60	Z60	

1	0	-328.0245361328126	1848.751098632813	-904.099060058594	-470.8949584960939	1741.405517578125	-966.3674926757815	-473.8277282714845	1742.360107421875	-819.3654785156252	-507.8918762207032	1591.072509765625	-898.9882812500002	-460.9006958007814	1249.568115234375	-883.2164306640627	-341.0825500488282	1561.715454101563	-894.9649047851565	-357.4420471191407	1599.981079101563	-1068.09326171875	-175.4656066894532	1540.044067382813	-1157.515258789063	-148.7502746582032	1574.050659179688	-1133.671630859375	-107.0130996704102	1536.581420898438	-1159.027709960938	-42.45769500732423	1545.790283203125	-1151.94189453125	-39.80876541137696	1478.942016601563	-1119.118408203125	243.1833038330079	1578.71142578125	-1018.3359375	252.1988830566407	1576.867309570313	-1097.438354492188	339.0944824218751	1607.759521484375	-1022.528259277344	-349.8356018066407	1593.419677734375	-731.7420654296876	-183.1358489990235	1566.580444335938	-635.8115844726564	-160.1934204101563	1591.17578125	-672.9941406250001	-113.3651885986328	1569.142456054688	-640.5946044921876	-49.40610885620119	1576.954467773438	-653.7061157226564	-44.50823974609376	1500.761108398438	-676.9827880859376	244.5295562744141	1615.017822265625	-697.4921264648439	323.2141723632813	1618.082641601563	-783.4788208007815	-248.4023590087891	1071.2587890625	-1019.037048339844	-247.1691284179688	1098.286499023438	-728.8084716796876	-455.0050659179689	1154.860717773438	-877.5101318359377	-454.2500305175782	1122.555908203125	-905.5783691406252	-458.7201538085939	1123.61572265625	-849.9905395507815	-333.4350585937501	860.9859008789065	-1076.537841796875	-314.1003723144532	778.8768310546877	-1078.682495117188	-264.9033203125001	774.869323730469	-1072.518920898438	-348.9277648925782	730.1231079101564	-1064.691284179688	-338.4751586914063	581.5783691406251	-1047.237182617188	-327.0276489257813	547.9421386718751	-918.0328369140627	-299.9151916503907	359.0625305175782	-1006.26806640625	-335.1092529296876	320.7147216796876	-1079.69775390625	-301.6212768554688	316.4946594238282	-1047.92822265625	-300.7973632812501	235.286361694336	-1025.802001953125	-356.9053955078126	115.6087722778321	-1075.002075195313	-407.0224914550782	81.10300445556642	-1024.960205078125	-196.7875213623047	56.55171966552736	-1012.342834472656	-192.0908660888672	57.13105773925783	-1054.342041015625	-322.7432556152344	123.8447418212891	-992.999206542969	-380.1631164550782	763.5842895507814	-700.6949462890626	-353.0993652343751	703.8792114257814	-699.3401489257814	-319.3030090332032	700.7707519531251	-699.0306396484376	-388.5666503906251	633.3612060546876	-720.9282226562501	-394.5308227539064	561.9775390625001	-726.4674682617189	-348.6936645507813	549.8345947265626	-850.4287719726565	-337.7207336425782	427.7655334472657	-740.5671997070314	-399.3747558593751	343.9554443359376	-715.9704589843751	-353.9577941894532	342.8981628417969	-731.1437988281251	-340.1908874511719	299.7794799804688	-769.9163208007815	-399.5926208496095	116.0674209594727	-742.3803710937501	-360.3847656250001	127.0118408203125	-826.971374511719	-450.7370910644532	88.62364959716798	-805.0991210937502	-228.8632507324219	63.9578094482422	-772.2883911132815	-238.6707305908204	61.2684898376465	-735.5593872070314	-262.2249450683594	41.91122817993165	-690.0584716796876	nan	nan	nan	
2	0.005	-327.8804626464844	1848.714477539063	-904.0866699218752	-470.8107299804689	1741.474975585938	-966.3689575195315	-473.732391357422	1742.356079101563	-819.3809204101565	-507.8845520019532	1591.101318359375	-898.9910278320315	-460.8389282226564	1249.564819335938	-883.1700439453127	-341.0070800781251	1561.682739257813	-894.9717407226565	-357.5130310058594	1599.849365234375	-1068.167236328125	-175.54248046875	1539.958129882813	-1157.533813476563	-148.7206268310547	1573.947998046875	-1133.68359375	-107.0621795654297	1536.483032226563	-1158.972900390625	-42.4956398010254	1545.72607421875	-1151.914184570313	-39.85101318359376	1478.8466796875	-1119.15869140625	243.073959350586	1578.580932617188	-1018.329833984375	252.173080444336	1576.740112304688	-1097.371948242188	338.7847595214844	1606.908569335938	-1022.923217773438	-349.4253845214844	1593.251586914063	-731.6738281250001	-183.0748138427735	1566.580322265625	-635.9067993164064	-160.1493530273438	1591.163940429688	-673.0691528320314	-113.3377151489258	1569.143310546875	-640.6961059570314	-49.3191375732422	1576.968139648438	-653.7910766601564	-44.45764923095704	1500.786376953125	-677.0524902343751	244.5495605468751	1615.04150390625	-697.5037841796876	323.2941894531251	1618.12109375	-783.4287109375002	-248.4218139648438	1071.225952148438	-1019.019592285156	-247.1409759521485	1098.267944335938	-728.8015747070314	-454.9542236328126	1154.922729492188	-877.4697875976565	-454.2731018066407	1122.559448242188	-905.548034667969	-458.711883544922	1123.617919921875	-849.9326782226565	-333.4415283203126	860.9978027343752	-1076.558959960938	-314.1661987304688	778.846130371094	-1078.650146484375	-266.2219543457032	775.2324218750002	-1072.970458984375	-348.9942321777344	730.1310424804689	-1064.650146484375	-338.5277404785157	581.5679931640626	-1047.223510742188	-327.0385131835938	547.9191284179689	-918.032897949219	-299.9128723144532	359.0949707031251	-1006.260803222656	-335.1231994628907	320.7264099121094	-1079.674560546875	-301.7304382324219	316.4429321289063	-1047.877563476563	-300.7804260253907	235.3430175781251	-1025.782592773438	-356.8811035156251	115.6084976196289	-1075.01220703125	-407.0251770019532	81.09111785888673	-1024.962158203125	-196.7794036865235	56.53533935546876	-1012.30517578125	-192.0741119384766	57.138240814209	-1054.341552734375	-322.7363281250001	123.8406982421875	-993.017272949219	-380.1527709960938	763.5793457031251	-700.6280517578126	-353.1398925781251	703.9082031250001	-699.2922363281251	-319.3353576660157	700.7932128906251	-698.9822998046876	-388.5566711425782	633.3902587890626	-720.8963012695314	-394.5342102050782	561.9765625000001	-726.4675903320314	-348.7104492187501	549.8338623046876	-850.400817871094	-337.7591857910157	427.7812805175782	-740.4951782226564	-399.3727416992189	343.9303588867188	-715.9697875976564	-353.9569396972657	342.9312744140626	-731.1582031250001	-340.2162170410157	299.7790527343751	-769.8764648437502	-399.608367919922	116.0299072265625	-742.4243164062501	-360.4618225097657	127.010726928711	-826.9651489257815	-450.7561340332032	88.60630035400392	-805.0789184570315	-228.8692626953126	63.91532516479494	-772.2657470703127	-238.6811676025391	61.21450042724611	-735.5402832031251	-262.2221374511719	41.90190124511719	-690.0444946289064	nan	nan	nan	
3	0.01	-327.8159484863282	1848.700927734375	-904.0926513671877	-470.7737731933595	1741.473876953125	-966.4741821289065	-473.6422119140626	1742.373046875	-819.355651855469	-507.8440551757814	1591.043212890625	-899.0345458984377	-460.7966613769532	1249.586791992188	-883.1251220703127	-341.0175781250001	1561.623168945313	-895.0487060546877	-357.5003662109376	1599.76708984375	-1068.193359375	-175.5465850830078	1539.855590820313	-1157.512329101563	-148.7365264892578	1573.865600585938	-1133.607299804688	-107.0728149414063	1536.388549804688	-1158.984497070313	-42.52211380004884	1545.628173828125	-1151.888671875	-39.86079788208009	1478.76318359375	-1119.1630859375	243.0486907958985	1578.4814453125	-1018.266540527344	252.2076568603516	1576.582641601563	-1097.332763671875	338.8815917968751	1607.359619140625	-1022.381896972656	-349.4193115234376	1593.248779296875	-731.7045288085939	-183.0270385742188	1566.581298828125	-635.9749145507814	-160.0721130371094	1591.164672851563	-673.1112670898439	-113.3119277954102	1569.159545898438	-640.7943725585939	-49.2946243286133	1576.985595703125	-653.8964843750001	-44.4115333557129	1500.79736328125	-677.2139282226564	244.6148681640626	1615.124145507813	-697.5674438476564	323.3767089843751	1618.107299804688	-783.4750976562502	-248.4526672363282	1071.1494140625	-1018.996337890625	-247.1163787841797	1098.275146484375	-728.7589721679689	-455.0044860839845	1154.942749023438	-877.4149169921877	-454.2941284179689	1122.580200195313	-905.4824218750002	-458.6832580566407	1123.698364257813	-849.8948974609377	-333.5498657226563	860.989929199219	-1076.500610351563	-314.2098999023438	778.8460693359377	-1078.6337890625	-264.9313964843751	774.8506469726565	-1072.501342773438	-349.0312500000001	730.1304321289064	-1064.651733398438	-338.5648193359376	581.6058349609376	-1047.227294921875	-327.1000061035157	547.9193725585939	-917.9731445312502	-299.9135742187501	359.1046142578126	-1006.267883300781	-335.1597900390626	320.7196350097657	-1079.684692382813	-301.6203918457032	316.5507202148438	-1047.837890625	-300.8006896972657	235.3351593017579	-1025.813354492188	-356.9493713378907	115.6443862915039	-1074.991088867188	-407.0224914550782	81.10300445556642	-1024.960205078125	-196.7843627929688	56.55352783203126	-1012.342407226563	-192.0841827392579	57.12251663208009	-1054.335815429688	-322.7626037597657	123.8477325439453	-992.984313964844	-380.1550292968751	763.5913696289064	-700.6315307617189	-353.1412658691407	703.8920288085939	-699.2814331054689	-319.3116149902344	700.7789916992189	-698.9827880859376	-388.584930419922	633.3602905273439	-720.8837280273439	-394.5313720703126	561.9920043945314	-726.4686279296876	-348.7693481445313	549.8441162109376	-850.4216918945315	-337.2878112792969	427.5403442382814	-740.3743286132814	-399.3593139648439	343.9317016601563	-715.9421997070314	-353.9226074218751	342.9380798339844	-731.1632690429689	-340.1852416992188	299.7970581054688	-769.918395996094	-399.6136779785157	116.0700149536133	-742.3626098632814	-360.4165649414063	127.0153732299805	-826.925476074219	-450.7219848632814	88.63690185546876	-805.0820312500002	-228.8959350585938	63.9175491333008	-772.2722778320315	-238.6766662597657	61.19688034057619	-735.5533447265626	-262.2156066894532	41.91649246215821	-690.0466308593751	nan	nan	nan	
4	0.015	-327.6665039062501	1848.72998046875	-904.1404418945315	-471.7726440429689	1743.346801757813	-966.8110961914065	-473.5510253906251	1742.346435546875	-819.3692626953127	-507.7937011718751	1591.051391601563	-899.0318603515627	-460.7829589843751	1249.605834960938	-883.099304199219	-341.0150756835938	1561.600708007813	-895.0463867187502	-357.5223083496094	1599.659423828125	-1068.25048828125	-175.5390625	1539.777709960938	-1157.512939453125	-148.7514953613282	1573.791870117188	-1133.584106445313	-107.0653915405274	1536.357055664063	-1158.961059570313	-42.50502014160157	1545.523681640625	-1151.8935546875	-39.88551712036134	1478.648193359375	-1119.199829101563	243.0876922607422	1578.364624023438	-1018.242248535156	252.1634674072266	1576.44287109375	-1097.244262695313	338.7834777832032	1607.130249023438	-1022.318237304688	-349.7385253906251	1593.47705078125	-731.8817749023439	-182.9842834472657	1566.655883789063	-636.0651245117189	-160.0425109863282	1591.212768554688	-673.2402954101564	-113.2550048828125	1569.1728515625	-640.8950805664064	-49.24467086791994	1577.008666992188	-653.9478149414064	-44.34216308593751	1500.784301757813	-677.3187255859376	244.6396636962891	1615.15380859375	-697.5551757812501	323.5134582519532	1618.17626953125	-783.459167480469	-248.5281677246094	1071.109008789063	-1018.960815429688	-247.0874481201172	1098.278930664063	-728.7542724609376	-454.9646606445314	1155.02392578125	-877.4200439453127	-454.2973937988282	1122.652709960938	-905.450622558594	-458.5859680175782	1123.690063476563	-849.856872558594	-333.5552062988282	860.9841918945315	-1076.519165039063	-314.2828979492188	778.8713378906252	-1078.599243164063	-266.3097839355469	775.245056152344	-1072.905395507813	-349.1157226562501	730.1394653320314	-1064.5927734375	-338.5846557617188	581.5974121093751	-1047.207885742188	-327.1883544921876	547.9323730468751	-917.9824218750002	-299.9842224121094	359.1079406738282	-1006.272033691406	-335.1552429199219	320.7528381347657	-1079.6689453125	-301.7437438964844	316.4768066406251	-1047.840942382813	-300.7751770019532	235.3864440917969	-1025.771850585938	-356.9520568847657	115.6894073486328	-1074.949462890625	-407.0141906738282	81.10292816162111	-1024.932739257813	-196.8040008544922	56.537899017334	-1012.352844238281	-192.0771789550782	57.13770294189455	-1054.343505859375	-322.7708129882813	123.8454818725586	-993.004333496094	-380.1901855468751	763.5941772460939	-700.6015014648439	-353.1444091796876	703.9110107421876	-699.2870483398439	-319.3821411132813	700.7814331054689	-698.9842529296876	-388.6058959960939	633.3635864257814	-720.8955688476564	-394.5686645507814	561.9677734375001	-726.4263305664064	-348.7641296386719	549.8473510742189	-850.3807373046877	-337.7737426757813	427.774627685547	-740.5144042968751	-399.3487854003907	343.9661254882813	-715.9027099609376	-353.9607849121094	342.9635620117188	-731.1383056640626	-340.1856994628907	299.8107604980469	-769.9008789062502	-399.617889404297	116.0537033081055	-742.3562622070314	-360.4855651855469	127.0366363525391	-826.9212646484377	-450.7243652343751	88.65927886962892	-805.0913085937502	-228.8657226562501	63.94484329223634	-772.2910156250002	-238.6710815429688	61.2001075744629	-735.5416259765626	-262.2248840332032	41.89979934692384	-690.0393676757814	nan	nan	nan	
